<?xml version="1.0" encoding="utf-8"?>
<!-- Generator: Adobe Illustrator 19.2.0, SVG Export Plug-In . SVG Version: 6.00 Build 0)  -->
<svg version="1.1" id="Layer_1" xmlns="http://www.w3.org/2000/svg" xmlns:xlink="http://www.w3.org/1999/xlink" x="0px" y="0px"
	 viewBox="0 0 514.3 497.2" style="enable-background:new 0 0 514.3 497.2;" xml:space="preserve">
<g>
	<path style="fill:#B381B9;" d="M41.1,317.8l-3.8-156.7C37,139.8,54.2,122.2,75.5,122l227.5,3.6c60.4-0.7,109.9,47.7,110.6,108.1v0
		c0.6,57.3-45.3,104.2-102.6,104.9L81.7,357.5C59.5,357.8,41.3,340,41.1,317.8z"/>
	
		<rect x="397.1" y="110.8" transform="matrix(1.113789e-02 0.9999 -0.9999 1.113789e-02 591.3698 -224.8414)" style="fill:#876091;" width="24.6" height="151.6"/>
	
		<rect x="398" y="197.9" transform="matrix(1.113789e-02 0.9999 -0.9999 1.113789e-02 679.4229 -139.6823)" style="fill:#876091;" width="24.6" height="151.6"/>
	<path style="fill:#876091;" d="M237.3,413l-3.8-336.7c0-0.6,0.5-1.1,1.1-1.1l18.5-0.2c0.6,0,1.1,0.5,1.1,1.1l3.8,336.7
		c0,0.6-0.5,1.1-1.1,1.1l-18.5,0.2C237.8,414.1,237.3,413.6,237.3,413z"/>
	<path style="fill:#B381B9;stroke:#784D83;stroke-width:5.8024;stroke-miterlimit:10;" d="M38.7,318l-3.8-156.7
		c-0.2-21.4,16.9-38.9,38.3-39.1l227.5,3.6c48.3-0.5,89.6,30.3,104.6,73.5c3.8,10.8,16.1,22.4,16.2,34.5v0
		c0.1,9.5-11.3,18.8-13.6,27.5c-11.5,44.1-51.4,76.9-99.2,77.5L79.3,357.7C57.1,358,39,340.2,38.7,318z"/>
	<path style="fill:#CFA7CE;stroke:#784D83;stroke-width:7.2716;stroke-miterlimit:10;" d="M229.1,127l84.3-0.9
		c61.1-0.7,88.5,48.7,116.9,87.6l3.7,19.8l-2,18.3c-40.1,52.4-52.4,86.5-110.2,87.2l-90.4,6l-8.8-109.3L229.1,127z"/>
	<path style="fill:#5F4F67;" d="M145.6,84.6l0-6.3c0-7.3,5.9-13.2,13.2-13.2l171.1-0.2c7.3,0,13.2,5.9,13.2,13.2l0,6.3
		c0,7.3-5.9,13.2-13.2,13.2l-171.1,0.2C151.5,97.8,145.6,91.9,145.6,84.6z"/>
	<path style="fill:#5F4F67;" d="M145.6,408.6l-0.1-6.3c-0.1-7.3,5.8-13.3,13.1-13.4l171-1.9c7.3-0.1,13.3,5.8,13.4,13.1l0.1,6.3
		c0.1,7.3-5.8,13.3-13.1,13.4l-171,1.9C151.7,421.7,145.7,415.9,145.6,408.6z"/>
	<g>
		<path style="fill:#B381B9;" d="M286.7,142.4c11.6-9,25.7-12.7,25.7-12.7"/>
		<path style="fill:#784D83;" d="M285,140.1c0,0,0.4-0.2,1.1-0.6c0.3-0.2,0.8-0.4,1.2-0.7c0.5-0.3,1.1-0.6,1.7-0.9
			c0.6-0.4,1.3-0.7,2-1c0.7-0.4,1.5-0.7,2.3-1.1c1.6-0.7,3.3-1.4,5-2.1c3.5-1.3,7-2.3,9.6-2.9c2.7-0.7,4.4-0.9,4.4-0.9
			s-1.7,0.6-4.1,1.8c-2.4,1.1-5.6,2.8-8.6,4.7c-1.5,0.9-3,1.9-4.3,2.9c-0.7,0.5-1.3,1-1.9,1.4c-0.6,0.5-1.2,0.9-1.6,1.3
			c-0.5,0.4-0.9,0.8-1.3,1.1c-0.4,0.4-0.8,0.7-1.1,1c-0.6,0.5-0.9,0.8-0.9,0.8L285,140.1z"/>
	</g>
	<path style="fill:#B381B9;stroke:#784D83;stroke-width:5.8024;stroke-miterlimit:10;" d="M287.7,321.2
		c-8.4-6.3-26.7-21.9-26.4-34.5c0.6-30,68.6,6.9,91.4,4.3c19.3-2.2,29.1-46.6,1.5-54.4l-7-2.5c-2.3-0.8-2.3-4.2,0.1-4.9l7-2.2
		c27.5-8.4,17.3-54.1-2-55.9c-22.9-2.1-91.4,34.4-92.7,4.4c-0.5-12.5,20.6-27.9,28.9-34.4"/>
	<g>
		<path style="fill:#B381B9;" d="M313.7,333.4c0,0-14.2-3.4-26-12.1"/>
		<path style="fill:#784D83;" d="M313.7,333.4c0,0-1.8-0.2-4.5-0.8c-2.7-0.6-6.2-1.5-9.7-2.7c-0.9-0.3-1.7-0.6-2.6-0.9
			c-0.9-0.3-1.7-0.7-2.5-1c-0.8-0.3-1.6-0.7-2.3-1c-0.7-0.3-1.4-0.7-2-1c-0.6-0.3-1.2-0.6-1.7-0.9c-0.5-0.3-0.9-0.5-1.3-0.7
			c-0.7-0.4-1.1-0.7-1.1-0.7l3.5-4.7c0,0,0.3,0.3,0.9,0.8c0.3,0.3,0.6,0.6,1,0.9c0.4,0.3,0.9,0.7,1.4,1.1c0.5,0.4,1.1,0.8,1.7,1.3
			c0.6,0.5,1.2,0.9,1.9,1.4c0.7,0.5,1.4,1,2.1,1.4c0.7,0.5,1.5,0.9,2.3,1.4c3.1,1.8,6.3,3.4,8.8,4.5
			C312,332.8,313.7,333.4,313.7,333.4z"/>
	</g>
	<path style="fill:#A171AA;stroke:#784D84;stroke-width:7;stroke-miterlimit:10;" d="M164.8,124.6c0,0-14.7,20.2-27.6,21.1
		c-5.6,0.4-18.5,3-31.7,3.6c-21.8,1.1-40.1,17-44.2,38.5L58.8,200c-4.4,22.6-4.1,45.8,0.8,68.3l3.7,17.2
		c4.8,22.3,24.7,38.1,47.5,37.8l22.8-0.3c0,0,26.6-1.1,32.4,25.9l-86.7,8.7c0,0-36.8-2.6-39.5-31.6c-2.7-29-3.2-179.7-3.2-179.7
		s4.5-21.6,27.2-23.1C86.6,121.9,164.8,124.6,164.8,124.6z"/>
	<path style="fill:#9174B4;stroke:#784D83;stroke-width:5.7615;stroke-miterlimit:10;" d="M226.8,124.4l-4.3,90.8
		c-0.4,9.4-0.4,18.9,0.2,28.3l6.1,95c0.2,3.9,4,6.5,7.8,5.5l15.5-4.2l-2.3-210.6C249.7,129.1,226,123.1,226.8,124.4z"/>
	<line style="fill:#8664AB;stroke:#784D83;stroke-width:5.7615;stroke-miterlimit:10;" x1="251" y1="234.7" x2="222.1" y2="235.5"/>
	<path style="fill:#B28AB2;" d="M471.9,312.5L470,143.8c-0.1-4.6,3.7-8.4,8.3-8.5l4,0c4.6-0.1,8.4,3.7,8.5,8.3l1.9,168.7
		c0.1,4.6-3.7,8.4-8.3,8.5l-4,0C475.7,320.9,471.9,317.1,471.9,312.5z"/>
</g>
</svg>
