<?xml version="1.0" encoding="utf-8"?>
<!-- Generator: Adobe Illustrator 19.2.0, SVG Export Plug-In . SVG Version: 6.00 Build 0)  -->
<svg version="1.1" id="Layer_1" xmlns="http://www.w3.org/2000/svg" xmlns:xlink="http://www.w3.org/1999/xlink" x="0px" y="0px"
	 viewBox="0 0 514.3 497.2" style="enable-background:new 0 0 514.3 497.2;" xml:space="preserve">
<g>
	<path style="fill:#D19258;" d="M31.9,312.9l-3.8-156.7c-0.2-21.4,16.9-38.9,38.3-39.1l227.5,3.6c60.4-0.7,109.9,47.7,110.6,108.1v0
		c0.6,57.3-45.3,104.2-102.6,104.9L72.5,352.6C50.3,352.9,32.2,335.1,31.9,312.9z"/>
	
		<rect x="387.9" y="105.9" transform="matrix(1.113789e-02 0.9999 -0.9999 1.113789e-02 577.4375 -220.5182)" style="fill:#845938;" width="24.6" height="151.6"/>
	
		<rect x="388.9" y="193" transform="matrix(1.113789e-02 0.9999 -0.9999 1.113789e-02 665.4907 -135.3592)" style="fill:#845938;" width="24.6" height="151.6"/>
	<path style="fill:#845938;" d="M228.1,408.1l-3.8-336.7c0-0.6,0.5-1.1,1.1-1.1L244,70c0.6,0,1.1,0.5,1.1,1.1l3.8,336.7
		c0,0.6-0.5,1.1-1.1,1.1l-18.5,0.2C228.6,409.2,228.1,408.7,228.1,408.1z"/>
	<path style="fill:#D19258;stroke:#A37047;stroke-width:5.8024;stroke-miterlimit:10;" d="M29.6,313.1l-3.8-156.7
		c-0.2-21.4,16.9-38.9,38.3-39.1l227.5,3.6c48.3-0.5,89.6,30.3,104.6,73.5c3.8,10.8,16.1,22.4,16.2,34.5v0
		c0.1,9.5-11.3,18.8-13.6,27.5c-11.5,44.1-51.4,76.9-99.2,77.5L70.2,352.8C48,353.1,29.8,335.3,29.6,313.1z"/>
	<path style="fill:#F2AF72;stroke:#A37047;stroke-width:6.0587;stroke-miterlimit:10;" d="M219.6,122.1l85.2-0.9
		c61.7-0.7,89.4,48.7,118.2,87.6l3.7,19.8l-2.1,18.3c-40.5,52.4-53,86.5-111.3,87.2l-93.6,1L219.6,122.1z"/>
	<path style="fill:#AD754E;" d="M136.5,79.7l0-6.3c0-7.3,5.9-13.2,13.2-13.2L320.7,60c7.3,0,13.2,5.9,13.2,13.2l0,6.3
		c0,7.3-5.9,13.2-13.2,13.2l-171.1,0.2C142.4,92.9,136.5,87,136.5,79.7z"/>
	<path style="fill:#AD754E;" d="M136.5,403.7l-0.1-6.3c-0.1-7.3,5.8-13.3,13.1-13.4l171-1.9c7.3-0.1,13.3,5.8,13.4,13.1l0.1,6.3
		c0.1,7.3-5.8,13.3-13.1,13.4l-171,1.9C142.6,416.9,136.6,411,136.5,403.7z"/>
	<g>
		<path style="fill:#D09258;" d="M277.6,137.6c11.6-9,25.7-12.7,25.7-12.7"/>
		<path style="fill:#A37047;" d="M274.5,133.5c0,0,0.4-0.2,1.1-0.6c0.4-0.2,0.8-0.4,1.3-0.6c0.6-0.3,1.2-0.6,1.9-0.9
			c0.7-0.3,1.4-0.6,2.2-0.9c0.8-0.3,1.6-0.6,2.4-0.9c1.7-0.6,3.5-1.2,5.3-1.7c3.6-1.1,7.3-1.8,10-2.3c2.7-0.5,4.6-0.6,4.6-0.6
			s-1.7,0.8-4,2.1c-2.4,1.3-5.4,3.3-8.3,5.4c-1.4,1-2.8,2.1-4.1,3.2c-0.6,0.5-1.2,1-1.8,1.6c-0.6,0.5-1.1,1-1.5,1.4
			c-0.4,0.4-0.8,0.8-1.2,1.2c-0.4,0.4-0.7,0.8-1,1c-0.6,0.6-0.9,0.9-0.9,0.9L274.5,133.5z"/>
	</g>
	<path style="fill:#D09258;stroke:#A37047;stroke-width:10.2308;stroke-miterlimit:10;" d="M278.6,316.3
		c-8.4-6.3-26.7-21.9-26.4-34.5c0.6-30,68.6,6.9,91.4,4.3c19.3-2.2,29.1-46.6,1.5-54.4l-7-2.5c-2.3-0.8-2.3-4.2,0.1-4.9l7-2.2
		c27.5-8.4,17.3-54.1-2-55.9c-22.9-2.1-91.4,34.4-92.7,4.4c-0.5-12.5,20.6-27.9,28.9-34.4"/>
	<g>
		<path style="fill:#D09258;" d="M304.6,328.5c0,0-14.2-3.4-26-12.1"/>
		<path style="fill:#A37047;" d="M304.6,328.5c0,0-1.8-0.1-4.6-0.5c-2.7-0.4-6.4-1.1-10-2.1c-0.9-0.2-1.8-0.5-2.7-0.8
			c-0.9-0.3-1.8-0.6-2.6-0.8c-0.9-0.3-1.7-0.6-2.4-0.9c-0.8-0.3-1.5-0.6-2.2-0.9c-0.7-0.3-1.3-0.6-1.8-0.8c-0.5-0.3-1-0.5-1.4-0.7
			c-0.8-0.4-1.2-0.6-1.2-0.6l6.1-8.2c0,0,0.3,0.3,0.8,0.8c0.3,0.3,0.6,0.6,0.9,1c0.4,0.4,0.8,0.8,1.3,1.2c0.5,0.5,1,0.9,1.5,1.4
			c0.6,0.5,1.2,1,1.8,1.5c0.6,0.5,1.3,1.1,2,1.6c0.7,0.5,1.4,1.1,2.1,1.6c2.9,2.1,6,3.9,8.4,5.2
			C302.9,327.7,304.6,328.5,304.6,328.5z"/>
	</g>
	<path style="fill:#BA7E56;stroke:#A37047;stroke-width:8.7565;stroke-miterlimit:10;" d="M155.9,123.8c0,0-14.3,19.6-26.9,20.5
		c-5.5,0.4-18,2.9-30.9,3.6c-21.2,1.1-39,16.5-43,37.4l-2.3,11.9c-4.2,22-4,44.6,0.8,66.4l3.6,16.8c4.7,21.7,24,37.1,46.2,36.8
		l22.2-0.2c0,0,25.9-1.1,31.5,25.2l-84.3,8.4c0,0-35.8-2.5-38.4-30.7s-3.1-174.8-3.1-174.8s4.3-21,26.5-22.4
		S155.9,123.8,155.9,123.8z"/>
	<path style="fill:#EF975A;stroke:#A37047;stroke-width:5.8024;stroke-miterlimit:10;" d="M217.6,119.5l-4.3,92.1
		c-0.4,9.6-0.4,19.2,0.2,28.7l6.1,96.3c0.2,3.9,4,6.6,7.8,5.6l15.5-4.3l-2.4-213.6C240.5,124.3,216.9,118.2,217.6,119.5z"/>
	<line style="fill:#EF975A;stroke:#A37047;stroke-width:5.8024;stroke-miterlimit:10;" x1="241.8" y1="229.9" x2="213" y2="230.6"/>
	<path style="fill:#C28E5A;" d="M462.7,307.6l-1.9-168.7c-0.1-4.6,3.7-8.4,8.3-8.5l4,0c4.6-0.1,8.4,3.7,8.5,8.3l1.9,168.7
		c0.1,4.6-3.7,8.4-8.3,8.5l-4,0C466.6,316,462.8,312.3,462.7,307.6z"/>
</g>
</svg>
