<?xml version="1.0" encoding="utf-8"?>
<!-- Generator: Adobe Illustrator 19.2.0, SVG Export Plug-In . SVG Version: 6.00 Build 0)  -->
<svg version="1.1" id="Layer_1" xmlns="http://www.w3.org/2000/svg" xmlns:xlink="http://www.w3.org/1999/xlink" x="0px" y="0px"
	 viewBox="0 0 514.3 497.2" style="enable-background:new 0 0 514.3 497.2;" xml:space="preserve">
<g>
	<path style="fill:#57504A;" d="M94.3,392.6c-1.1-0.9-2.5-1.2-3.8-0.8c-4.2,1.4-13.6,4.9-15.7,9.5c-1.8,3.8-5.9,7-8.8,8.8
		c-1.6,1.1-3.8,0.8-5.1-0.7c-5.4-6.1-18.4-22.8-11.8-35.3c4.2-7.9,5.3-12.5,5.4-15.1c0.1-1.7-1-3.2-2.6-3.8l-7.6-2.7
		c-1.6-0.6-3.4-0.1-4.5,1.3c-4,5.2-13.5,18.7-16.8,34.4c-4.2,20.1,11.6,48.1,19.3,54c6.5,5,32,3.6,40,3.1c1.5-0.1,2.8-1,3.4-2.4
		c3.4-7.9,14.8-34.7,16-38.8C102.9,400.4,97.3,395.1,94.3,392.6z"/>
	<path style="fill:#DBC9BD;stroke:#AF9F94;stroke-width:4.7851;stroke-miterlimit:10;" d="M420.2,165.2l-0.8,13.8
		c-0.1,1,0.4,1.9,1.2,2.5l17.4,11.8c2,1.4,4.7-0.3,4.3-2.8l-3.5-20.8c-0.2-1-0.9-1.8-1.8-2.2l-13.1-4.8
		C422.2,162.1,420.3,163.3,420.2,165.2z"/>
	<path style="fill:#DBC9BD;stroke:#AF9F94;stroke-width:4.7851;stroke-miterlimit:10;" d="M391.8,110.3l-10.1-9.4
		c-0.7-0.7-1-1.7-0.8-2.6l4.4-20.5c0.5-2.4,3.7-3,5-1l11.9,17.4c0.6,0.8,0.6,1.9,0.2,2.8l-6.1,12.5
		C395.4,111.2,393.2,111.6,391.8,110.3z"/>
	<path style="fill:#CEBEB3;stroke:#AF9F94;stroke-width:7.9752;stroke-miterlimit:10;" d="M282.8,265.7l-21.9-24.3
		c-12.4-13.8-17-36.8-5.5-45.1l130.9-89.4c10.2-7.4,16.5-2.1,27.6,10.1l5.4,16.6c10.9,12.2,1.2,26-7,35.4l-86.9,104.6
		C316,284.4,295.3,279.6,282.8,265.7z"/>
	<path style="fill:#EAD7CA;stroke:#AF9F94;stroke-width:7.9752;stroke-miterlimit:10;" d="M394.9,164.3l-16.8-36.9
		c-5.1-11.2-1.9-23.4,7.1-26.4l88.2-22.7c8-2.7,17.6,3,22.2,13l3.2,7.1c4.5,9.9,2.6,20.8-4.5,25.2l-74.6,52.5
		C411.6,181.1,400.1,175.6,394.9,164.3z"/>
	<path style="fill:#EAD7CA;stroke:#AF9F94;stroke-width:7.9752;stroke-miterlimit:10;" d="M126.5,429.4l-47.6-53
		c-14.5-16.1-12.1-41.1,5.1-54.3l15.5-14.1l35.7-22c14.6-9.8,28.2-20.9,40.6-33.4l0,0l61.9-69.1c15.4-11.7,37.2-9.7,50.1,4.7
		l46.9,52.2c12.8,14.2,12.7,35.8-0.3,49.9l-73.5,51.7l0,0c-15.1,8.7-28.4,20.1-39.3,33.7l-5.4,6.8l-34.7,47.1
		C166.6,445.8,141.2,445.7,126.5,429.4z"/>
	<path style="fill:#DDA772;stroke:#C6893F;stroke-width:10.7854;stroke-miterlimit:10;" d="M104,305.4c14.6-9.8,61.2-40.9,73.6-53.4
		l0,0l20.1-22.5L284,325l-21.3,16.3h0c-18.7,6.7-66.7,69.8-66.7,69.8L104,305.4z"/>
	<path style="fill:#57504A;" d="M408.8,119.9l-36.9,1.6c-0.6,0-1.1,0.2-1.5,0.6l-15.6,14.5c-1.1,1-1,2.8,0.3,3.7l0,0
		c2.1,1.5,0.7,4.8-1.9,4.2l-22.8-5.2c-0.5-0.1-1-0.1-1.5,0.1L305.2,150c-1.8,0.8-1.9,3.3-0.2,4.2l23.1,12.9c2.1,1.2,1.3,4.4-1.2,4.4
		l-46.8-0.1c-2.1,0-3.2,2.6-1.7,4c9.3,9.1,31.3,30.2,34.2,30.1c3.2-0.1,42.4,2.6,54.3,3.4c1.7,0.1,2.9-1.5,2.4-3.1L363,186
		c-0.5-1.5,0.6-3,2.1-3.1l24-1.2c1.7-0.1,2.8-1.9,2-3.4l-5.3-10.1c-0.7-1.3,0-3,1.5-3.4l23.1-6.2c0.6-0.2,1.1-0.5,1.4-1l17.4-27.3
		c0.8-1.3,0.2-2.9-1.2-3.5l-18.2-6.8C409.4,119.9,409.1,119.9,408.8,119.9z"/>
	<path style="fill:#C6893F;stroke:#C6893F;stroke-width:11.0571;stroke-miterlimit:10;" d="M281.9,326.7l-41-14.1
		c-12.7,11.5-47.3,34-58.3,22l-0.8-0.8c-10.9-12.1,11.2-49.1,23.8-60.6l-7.2-36.3"/>
</g>
</svg>
