<?xml version="1.0" encoding="utf-8"?>
<!-- Generator: Adobe Illustrator 19.2.0, SVG Export Plug-In . SVG Version: 6.00 Build 0)  -->
<svg version="1.1" id="Layer_1" xmlns="http://www.w3.org/2000/svg" xmlns:xlink="http://www.w3.org/1999/xlink" x="0px" y="0px"
	 viewBox="0 0 514.3 497.2" style="enable-background:new 0 0 514.3 497.2;" xml:space="preserve">
<path style="fill:#57504A;" d="M88.8,410.9c-1.1-0.9-2.5-1.2-3.8-0.8c-4.2,1.4-13.6,4.9-15.7,9.5c-1.8,3.8-5.9,7-8.8,8.8
	c-1.6,1.1-3.8,0.8-5.1-0.7c-5.4-6.1-18.4-22.8-11.8-35.3c4.2-7.9,5.3-12.5,5.4-15.1c0.1-1.7-1-3.2-2.6-3.8l-7.6-2.7
	c-1.6-0.6-3.4-0.1-4.5,1.3c-4,5.2-13.5,18.7-16.8,34.4c-4.2,20.1,11.6,48.1,19.3,54c6.5,5,32,3.6,40,3.1c1.5-0.1,2.8-1,3.4-2.4
	c3.4-7.9,14.8-34.7,16-38.8C97.3,418.7,91.7,413.4,88.8,410.9z"/>
<path style="fill:#DBC9BD;stroke:#AF9F94;stroke-width:4.7851;stroke-miterlimit:10;" d="M414.7,183.5l-0.8,13.8
	c-0.1,1,0.4,1.9,1.2,2.5l17.4,11.8c2,1.4,4.7-0.3,4.3-2.8l-3.5-20.8c-0.2-1-0.9-1.8-1.8-2.2l-13.1-4.8
	C416.7,180.4,414.8,181.6,414.7,183.5z"/>
<path style="fill:#DBC9BD;stroke:#AF9F94;stroke-width:4.7851;stroke-miterlimit:10;" d="M386.3,128.6l-10.1-9.4
	c-0.7-0.7-1-1.7-0.8-2.6l4.4-20.5c0.5-2.4,3.7-3,5-1l11.9,17.4c0.6,0.8,0.6,1.9,0.2,2.8l-6.1,12.5
	C389.9,129.5,387.7,129.9,386.3,128.6z"/>
<path style="fill:#CEBEB3;stroke:#AF9F94;stroke-width:7.9752;stroke-miterlimit:10;" d="M277.2,284l-21.9-24.3
	c-12.4-13.8-17-36.8-5.5-45.1l130.9-89.4c10.2-7.4,16.5-2.1,27.6,10.1l5.4,16.6c10.9,12.2,1.2,26-7,35.4l-86.9,104.6
	C310.5,302.7,289.7,297.9,277.2,284z"/>
<path style="fill:#EAD7CA;stroke:#AF9F94;stroke-width:7.9752;stroke-miterlimit:10;" d="M389.4,182.6l-16.8-36.9
	c-5.1-11.2-1.9-23.4,7.1-26.4l88.2-22.7c8-2.7,17.6,3,22.2,13l3.2,7.1c4.5,9.9,2.6,20.8-4.5,25.2l-74.6,52.5
	C406,199.5,394.6,194,389.4,182.6z"/>
<path style="fill:#EAD7CA;stroke:#AF9F94;stroke-width:7.9752;stroke-miterlimit:10;" d="M121,447.8l-47.6-53
	c-14.5-16.1-12.1-41.1,5.1-54.3L94,326.5l35.7-22c14.6-9.8,28.2-20.9,40.6-33.4l0,0l61.9-69.1c15.4-11.7,37.2-9.7,50.1,4.7
	l46.9,52.2c12.8,14.2,12.7,35.8-0.3,49.9l-73.5,51.7h0c-15.1,8.7-28.4,20.1-39.3,33.7l-5.4,6.8l-34.7,47.1
	C161.1,464.2,135.6,464,121,447.8z"/>
<path style="fill:#79C9DA;stroke:#6F95B5;stroke-width:10.7854;stroke-miterlimit:10;" d="M83.7,334.2c14.6-9.8,76.1-51.5,88.5-63.9
	h0l20.1-22.5l86.2,95.5l-21.3,16.3l0,0c-18.7,6.7-78.9,81.7-78.9,81.7L83.7,334.2z"/>
<path style="fill:#57504A;" d="M403.3,138.2l-36.9,1.6c-0.6,0-1.1,0.2-1.5,0.6L349.3,155c-1.1,1-1,2.8,0.3,3.7l0,0
	c2.1,1.5,0.7,4.8-1.9,4.2l-22.8-5.2c-0.5-0.1-1-0.1-1.5,0.1l-23.8,10.6c-1.8,0.8-1.9,3.3-0.2,4.2l23.1,12.9c2.1,1.2,1.3,4.4-1.2,4.4
	l-46.8-0.1c-2.1,0-3.2,2.6-1.7,4c9.3,9.1,31.3,30.2,34.2,30.1c3.2-0.1,42.4,2.6,54.3,3.4c1.7,0.1,2.9-1.5,2.4-3.1l-6.4-20.1
	c-0.5-1.5,0.6-3,2.1-3.1l24-1.2c1.7-0.1,2.8-1.9,2-3.4l-5.3-10.1c-0.7-1.3,0-3,1.5-3.4l23.1-6.2c0.6-0.2,1.1-0.5,1.4-1l17.4-27.3
	c0.8-1.3,0.2-2.9-1.2-3.5l-18.2-6.8C403.9,138.2,403.6,138.2,403.3,138.2z"/>
<path style="fill:#6F95B5;stroke:#6F95B5;stroke-width:11.035;stroke-miterlimit:10;" d="M273.8,344.1l-41-14.2
	c-12.6,11.5-47.1,33.9-58.1,21.8L174,351c-10.9-12.1,11-49,23.7-60.4l-7.2-36.2"/>
</svg>
